<mxfile host="Electron" agent="Mozilla/5.0 (Windows NT 10.0; Win64; x64) AppleWebKit/537.36 (KHTML, like Gecko) draw.io/26.0.9 Chrome/128.0.6613.186 Electron/32.2.5 Safari/537.36" version="26.0.9" pages="2">
  <diagram name="high_level_architecture" id="pRF5prIzTmHEEgIT-qyI">
    <mxGraphModel dx="2901" dy="1204" grid="1" gridSize="10" guides="1" tooltips="1" connect="1" arrows="1" fold="1" page="1" pageScale="1" pageWidth="827" pageHeight="1169" math="0" shadow="0">
      <root>
        <mxCell id="0" />
        <mxCell id="1" parent="0" />
        <mxCell id="k-4CNv81ZqhIUNKR1yuo-58" value="" style="rounded=0;whiteSpace=wrap;html=1;" parent="1" vertex="1">
          <mxGeometry x="-150" y="20" width="1090" height="690" as="geometry" />
        </mxCell>
        <mxCell id="k-4CNv81ZqhIUNKR1yuo-44" value="" style="rounded=0;whiteSpace=wrap;html=1;fillColor=none;dashed=1;" parent="1" vertex="1">
          <mxGeometry x="200" y="60" width="720" height="630" as="geometry" />
        </mxCell>
        <mxCell id="k-4CNv81ZqhIUNKR1yuo-5" style="edgeStyle=orthogonalEdgeStyle;rounded=0;orthogonalLoop=1;jettySize=auto;html=1;exitX=1;exitY=0.5;exitDx=0;exitDy=0;curved=1;" parent="1" source="k-4CNv81ZqhIUNKR1yuo-1" target="k-4CNv81ZqhIUNKR1yuo-2" edge="1">
          <mxGeometry relative="1" as="geometry" />
        </mxCell>
        <mxCell id="k-4CNv81ZqhIUNKR1yuo-1" value="Memtable" style="rounded=1;whiteSpace=wrap;html=1;shadow=1;" parent="1" vertex="1">
          <mxGeometry x="360" y="80" width="120" height="60" as="geometry" />
        </mxCell>
        <mxCell id="k-4CNv81ZqhIUNKR1yuo-4" value="" style="rounded=1;whiteSpace=wrap;html=1;shadow=1;dashed=1;" parent="1" vertex="1">
          <mxGeometry x="500" y="220" width="120" height="60" as="geometry" />
        </mxCell>
        <mxCell id="k-4CNv81ZqhIUNKR1yuo-40" style="edgeStyle=orthogonalEdgeStyle;rounded=0;orthogonalLoop=1;jettySize=auto;html=1;exitX=0.5;exitY=1;exitDx=0;exitDy=0;entryX=0.5;entryY=0;entryDx=0;entryDy=0;curved=1;" parent="1" source="k-4CNv81ZqhIUNKR1yuo-3" target="k-4CNv81ZqhIUNKR1yuo-7" edge="1">
          <mxGeometry relative="1" as="geometry" />
        </mxCell>
        <mxCell id="k-4CNv81ZqhIUNKR1yuo-3" value="" style="rounded=1;whiteSpace=wrap;html=1;shadow=1;dashed=1;" parent="1" vertex="1">
          <mxGeometry x="490" y="210" width="120" height="60" as="geometry" />
        </mxCell>
        <mxCell id="k-4CNv81ZqhIUNKR1yuo-2" value="Memtable&lt;div&gt;(immutable)&lt;/div&gt;" style="rounded=1;whiteSpace=wrap;html=1;shadow=1;" parent="1" vertex="1">
          <mxGeometry x="480" y="200" width="120" height="60" as="geometry" />
        </mxCell>
        <mxCell id="k-4CNv81ZqhIUNKR1yuo-6" value="Memtable Full" style="text;html=1;align=center;verticalAlign=middle;whiteSpace=wrap;rounded=0;" parent="1" vertex="1">
          <mxGeometry x="540" y="120" width="90" height="30" as="geometry" />
        </mxCell>
        <mxCell id="k-4CNv81ZqhIUNKR1yuo-42" style="edgeStyle=orthogonalEdgeStyle;rounded=0;orthogonalLoop=1;jettySize=auto;html=1;exitX=1;exitY=0.5;exitDx=0;exitDy=0;entryX=1;entryY=0.5;entryDx=0;entryDy=0;curved=1;" parent="1" source="k-4CNv81ZqhIUNKR1yuo-8" target="k-4CNv81ZqhIUNKR1yuo-11" edge="1">
          <mxGeometry relative="1" as="geometry" />
        </mxCell>
        <mxCell id="k-4CNv81ZqhIUNKR1yuo-8" value="" style="rounded=1;whiteSpace=wrap;html=1;shadow=1;" parent="1" vertex="1">
          <mxGeometry x="490" y="370" width="60" height="40" as="geometry" />
        </mxCell>
        <mxCell id="k-4CNv81ZqhIUNKR1yuo-7" value="SST file" style="rounded=1;whiteSpace=wrap;html=1;shadow=1;" parent="1" vertex="1">
          <mxGeometry x="440" y="360" width="60" height="40" as="geometry" />
        </mxCell>
        <mxCell id="k-4CNv81ZqhIUNKR1yuo-9" value="SST file" style="rounded=1;whiteSpace=wrap;html=1;shadow=1;" parent="1" vertex="1">
          <mxGeometry x="440" y="440" width="60" height="40" as="geometry" />
        </mxCell>
        <mxCell id="k-4CNv81ZqhIUNKR1yuo-10" value="" style="rounded=1;whiteSpace=wrap;html=1;shadow=1;" parent="1" vertex="1">
          <mxGeometry x="520" y="440" width="60" height="40" as="geometry" />
        </mxCell>
        <mxCell id="k-4CNv81ZqhIUNKR1yuo-11" value="" style="rounded=1;whiteSpace=wrap;html=1;shadow=1;" parent="1" vertex="1">
          <mxGeometry x="600" y="440" width="60" height="40" as="geometry" />
        </mxCell>
        <mxCell id="k-4CNv81ZqhIUNKR1yuo-12" value="SST file" style="rounded=1;whiteSpace=wrap;html=1;shadow=1;" parent="1" vertex="1">
          <mxGeometry x="440" y="510" width="60" height="40" as="geometry" />
        </mxCell>
        <mxCell id="k-4CNv81ZqhIUNKR1yuo-13" value="" style="rounded=1;whiteSpace=wrap;html=1;shadow=1;" parent="1" vertex="1">
          <mxGeometry x="520" y="510" width="60" height="40" as="geometry" />
        </mxCell>
        <mxCell id="k-4CNv81ZqhIUNKR1yuo-14" value="" style="rounded=1;whiteSpace=wrap;html=1;shadow=1;" parent="1" vertex="1">
          <mxGeometry x="600" y="510" width="60" height="40" as="geometry" />
        </mxCell>
        <mxCell id="k-4CNv81ZqhIUNKR1yuo-15" value="" style="rounded=1;whiteSpace=wrap;html=1;shadow=1;" parent="1" vertex="1">
          <mxGeometry x="680" y="510" width="60" height="40" as="geometry" />
        </mxCell>
        <mxCell id="k-4CNv81ZqhIUNKR1yuo-16" value="" style="ellipse;whiteSpace=wrap;html=1;aspect=fixed;shadow=1;" parent="1" vertex="1">
          <mxGeometry x="450" y="579.5" width="10" height="10" as="geometry" />
        </mxCell>
        <mxCell id="k-4CNv81ZqhIUNKR1yuo-19" value="" style="ellipse;whiteSpace=wrap;html=1;aspect=fixed;shadow=1;" parent="1" vertex="1">
          <mxGeometry x="480" y="579.5" width="10" height="10" as="geometry" />
        </mxCell>
        <mxCell id="k-4CNv81ZqhIUNKR1yuo-20" value="" style="ellipse;whiteSpace=wrap;html=1;aspect=fixed;shadow=1;" parent="1" vertex="1">
          <mxGeometry x="510" y="579.5" width="10" height="10" as="geometry" />
        </mxCell>
        <mxCell id="k-4CNv81ZqhIUNKR1yuo-21" value="" style="ellipse;whiteSpace=wrap;html=1;aspect=fixed;shadow=1;" parent="1" vertex="1">
          <mxGeometry x="540" y="579.5" width="10" height="10" as="geometry" />
        </mxCell>
        <mxCell id="k-4CNv81ZqhIUNKR1yuo-22" value="SST file" style="rounded=1;whiteSpace=wrap;html=1;shadow=1;" parent="1" vertex="1">
          <mxGeometry x="440" y="620" width="60" height="40" as="geometry" />
        </mxCell>
        <mxCell id="k-4CNv81ZqhIUNKR1yuo-23" value="" style="rounded=1;whiteSpace=wrap;html=1;shadow=1;" parent="1" vertex="1">
          <mxGeometry x="520" y="620" width="60" height="40" as="geometry" />
        </mxCell>
        <mxCell id="k-4CNv81ZqhIUNKR1yuo-24" value="" style="rounded=1;whiteSpace=wrap;html=1;shadow=1;" parent="1" vertex="1">
          <mxGeometry x="600" y="620" width="60" height="40" as="geometry" />
        </mxCell>
        <mxCell id="k-4CNv81ZqhIUNKR1yuo-25" value="" style="rounded=1;whiteSpace=wrap;html=1;shadow=1;" parent="1" vertex="1">
          <mxGeometry x="680" y="620" width="60" height="40" as="geometry" />
        </mxCell>
        <mxCell id="k-4CNv81ZqhIUNKR1yuo-26" value="" style="rounded=1;whiteSpace=wrap;html=1;shadow=1;" parent="1" vertex="1">
          <mxGeometry x="760" y="620" width="60" height="40" as="geometry" />
        </mxCell>
        <mxCell id="k-4CNv81ZqhIUNKR1yuo-27" value="" style="rounded=1;whiteSpace=wrap;html=1;shadow=1;" parent="1" vertex="1">
          <mxGeometry x="840" y="620" width="60" height="40" as="geometry" />
        </mxCell>
        <mxCell id="k-4CNv81ZqhIUNKR1yuo-28" value="L0" style="text;html=1;align=center;verticalAlign=middle;whiteSpace=wrap;rounded=0;fontStyle=1" parent="1" vertex="1">
          <mxGeometry x="380" y="365" width="60" height="30" as="geometry" />
        </mxCell>
        <mxCell id="k-4CNv81ZqhIUNKR1yuo-29" value="L1" style="text;html=1;align=center;verticalAlign=middle;whiteSpace=wrap;rounded=0;fontStyle=1" parent="1" vertex="1">
          <mxGeometry x="380" y="445" width="60" height="30" as="geometry" />
        </mxCell>
        <mxCell id="k-4CNv81ZqhIUNKR1yuo-31" value="L2" style="text;html=1;align=center;verticalAlign=middle;whiteSpace=wrap;rounded=0;fontStyle=1" parent="1" vertex="1">
          <mxGeometry x="380" y="515" width="60" height="30" as="geometry" />
        </mxCell>
        <mxCell id="k-4CNv81ZqhIUNKR1yuo-32" value="" style="shape=curlyBracket;whiteSpace=wrap;html=1;rounded=1;labelPosition=left;verticalLabelPosition=middle;align=right;verticalAlign=middle;" parent="1" vertex="1">
          <mxGeometry x="370" y="345" width="20" height="70" as="geometry" />
        </mxCell>
        <mxCell id="k-4CNv81ZqhIUNKR1yuo-33" value="" style="shape=curlyBracket;whiteSpace=wrap;html=1;rounded=1;labelPosition=left;verticalLabelPosition=middle;align=right;verticalAlign=middle;" parent="1" vertex="1">
          <mxGeometry x="370" y="425" width="20" height="245" as="geometry" />
        </mxCell>
        <mxCell id="k-4CNv81ZqhIUNKR1yuo-34" value="Ln" style="text;html=1;align=center;verticalAlign=middle;whiteSpace=wrap;rounded=0;fontStyle=1" parent="1" vertex="1">
          <mxGeometry x="320" y="625" width="60" height="30" as="geometry" />
        </mxCell>
        <mxCell id="k-4CNv81ZqhIUNKR1yuo-37" value="At L0, SST files may&lt;div&gt;contain overlapping key&lt;/div&gt;&lt;div style=&quot;&quot;&gt;ranges&lt;/div&gt;" style="text;html=1;align=left;verticalAlign=middle;whiteSpace=wrap;rounded=0;" parent="1" vertex="1">
          <mxGeometry x="220" y="352.5" width="150" height="55" as="geometry" />
        </mxCell>
        <mxCell id="k-4CNv81ZqhIUNKR1yuo-38" value="At L1-Ln levels, SST files&lt;div&gt;contains non-overlapping/&lt;/div&gt;&lt;div&gt;ordered sequence of keys&lt;/div&gt;" style="text;html=1;align=left;verticalAlign=middle;whiteSpace=wrap;rounded=0;" parent="1" vertex="1">
          <mxGeometry x="220" y="480" width="150" height="55" as="geometry" />
        </mxCell>
        <mxCell id="k-4CNv81ZqhIUNKR1yuo-39" value="All SST Files are&lt;div&gt;immutable&lt;/div&gt;" style="text;html=1;align=left;verticalAlign=middle;whiteSpace=wrap;rounded=0;" parent="1" vertex="1">
          <mxGeometry x="220" y="565" width="150" height="55" as="geometry" />
        </mxCell>
        <mxCell id="k-4CNv81ZqhIUNKR1yuo-41" value="Flush" style="text;html=1;align=center;verticalAlign=middle;resizable=0;points=[];autosize=1;strokeColor=none;fillColor=none;" parent="1" vertex="1">
          <mxGeometry x="525" y="310" width="50" height="30" as="geometry" />
        </mxCell>
        <mxCell id="k-4CNv81ZqhIUNKR1yuo-43" value="Compaction&lt;div&gt;(Merge Sort, remove stale&amp;nbsp;&lt;span style=&quot;background-color: initial;&quot;&gt;entries)&lt;/span&gt;&lt;/div&gt;" style="text;html=1;align=left;verticalAlign=middle;whiteSpace=wrap;rounded=0;" parent="1" vertex="1">
          <mxGeometry x="690" y="395" width="190" height="55" as="geometry" />
        </mxCell>
        <mxCell id="k-4CNv81ZqhIUNKR1yuo-45" value="For each Colume Family" style="text;html=1;align=left;verticalAlign=middle;whiteSpace=wrap;rounded=0;" parent="1" vertex="1">
          <mxGeometry x="780" y="30" width="140" height="30" as="geometry" />
        </mxCell>
        <mxCell id="k-4CNv81ZqhIUNKR1yuo-46" value="" style="endArrow=classic;html=1;rounded=0;entryX=0;entryY=0.5;entryDx=0;entryDy=0;" parent="1" target="k-4CNv81ZqhIUNKR1yuo-1" edge="1">
          <mxGeometry width="50" height="50" relative="1" as="geometry">
            <mxPoint x="150" y="110" as="sourcePoint" />
            <mxPoint x="190" y="80" as="targetPoint" />
          </mxGeometry>
        </mxCell>
        <mxCell id="k-4CNv81ZqhIUNKR1yuo-49" style="edgeStyle=orthogonalEdgeStyle;rounded=0;orthogonalLoop=1;jettySize=auto;html=1;exitX=0.5;exitY=1;exitDx=0;exitDy=0;entryX=0.5;entryY=0;entryDx=0;entryDy=0;" parent="1" source="k-4CNv81ZqhIUNKR1yuo-47" target="k-4CNv81ZqhIUNKR1yuo-48" edge="1">
          <mxGeometry relative="1" as="geometry" />
        </mxCell>
        <mxCell id="k-4CNv81ZqhIUNKR1yuo-47" value="Writes" style="text;html=1;align=center;verticalAlign=middle;whiteSpace=wrap;rounded=0;fontStyle=1" parent="1" vertex="1">
          <mxGeometry x="70" y="95" width="60" height="30" as="geometry" />
        </mxCell>
        <mxCell id="k-4CNv81ZqhIUNKR1yuo-48" value="Write-Ahead Log&lt;div&gt;(WAL)&lt;/div&gt;" style="rounded=1;whiteSpace=wrap;html=1;shadow=1;fontStyle=1" parent="1" vertex="1">
          <mxGeometry x="40" y="355" width="120" height="60" as="geometry" />
        </mxCell>
        <mxCell id="k-4CNv81ZqhIUNKR1yuo-51" style="edgeStyle=orthogonalEdgeStyle;rounded=0;orthogonalLoop=1;jettySize=auto;html=1;exitX=0.5;exitY=0;exitDx=0;exitDy=0;entryX=0.5;entryY=1;entryDx=0;entryDy=0;dashed=1;" parent="1" source="k-4CNv81ZqhIUNKR1yuo-50" target="k-4CNv81ZqhIUNKR1yuo-48" edge="1">
          <mxGeometry relative="1" as="geometry" />
        </mxCell>
        <mxCell id="k-4CNv81ZqhIUNKR1yuo-50" value="Write-Ahead Log&lt;div&gt;(WAL)&lt;/div&gt;" style="rounded=1;whiteSpace=wrap;html=1;shadow=1;fontStyle=1" parent="1" vertex="1">
          <mxGeometry x="40" y="480" width="120" height="60" as="geometry" />
        </mxCell>
        <mxCell id="k-4CNv81ZqhIUNKR1yuo-52" style="edgeStyle=orthogonalEdgeStyle;rounded=0;orthogonalLoop=1;jettySize=auto;html=1;exitX=1;exitY=0.5;exitDx=0;exitDy=0;entryX=0.001;entryY=0.715;entryDx=0;entryDy=0;entryPerimeter=0;dashed=1;" parent="1" source="k-4CNv81ZqhIUNKR1yuo-50" target="k-4CNv81ZqhIUNKR1yuo-44" edge="1">
          <mxGeometry relative="1" as="geometry">
            <mxPoint x="200" y="550" as="targetPoint" />
          </mxGeometry>
        </mxCell>
        <mxCell id="k-4CNv81ZqhIUNKR1yuo-53" value="Keeps track of all&amp;nbsp;&lt;span style=&quot;background-color: initial;&quot;&gt;Filesystem changes (WAL&amp;nbsp;&lt;/span&gt;&lt;span style=&quot;background-color: initial;&quot;&gt;switch, SST file change,&amp;nbsp;&lt;/span&gt;&lt;span style=&quot;background-color: initial;&quot;&gt;etc...)&lt;/span&gt;&lt;div&gt;&lt;br&gt;&lt;/div&gt;&lt;div&gt;On unclean restarts, used to rollback to last consistent point&lt;/div&gt;" style="text;html=1;align=left;verticalAlign=middle;whiteSpace=wrap;rounded=0;" parent="1" vertex="1">
          <mxGeometry x="40" y="557" width="150" height="133" as="geometry" />
        </mxCell>
        <mxCell id="k-4CNv81ZqhIUNKR1yuo-54" value="" style="endArrow=none;html=1;rounded=0;fillColor=#f5f5f5;strokeColor=#666666;dashed=1;" parent="1" edge="1">
          <mxGeometry width="50" height="50" relative="1" as="geometry">
            <mxPoint x="-130" y="300" as="sourcePoint" />
            <mxPoint x="940" y="300" as="targetPoint" />
          </mxGeometry>
        </mxCell>
        <mxCell id="k-4CNv81ZqhIUNKR1yuo-55" value="Memory" style="text;html=1;align=left;verticalAlign=middle;whiteSpace=wrap;rounded=0;fontStyle=1" parent="1" vertex="1">
          <mxGeometry x="-120" y="270" width="60" height="30" as="geometry" />
        </mxCell>
        <mxCell id="k-4CNv81ZqhIUNKR1yuo-56" value="Persistet Media" style="text;html=1;align=left;verticalAlign=middle;whiteSpace=wrap;rounded=0;fontStyle=1" parent="1" vertex="1">
          <mxGeometry x="-120" y="300" width="120" height="30" as="geometry" />
        </mxCell>
        <mxCell id="k-4CNv81ZqhIUNKR1yuo-57" value="WAL can be by-passed&lt;div&gt;&amp;nbsp;(thru WriteOptions.&lt;/div&gt;&lt;div&gt;disableWAL)&lt;/div&gt;&lt;div&gt;&lt;br&gt;&lt;/div&gt;&lt;div&gt;New WAL created on each&lt;/div&gt;&lt;div&gt;flush&lt;/div&gt;&lt;div&gt;&lt;br&gt;&lt;/div&gt;&lt;div&gt;Single WAL captures&lt;/div&gt;&lt;div&gt;write logs for all&lt;/div&gt;&lt;div&gt;Column Families&lt;/div&gt;" style="text;html=1;align=left;verticalAlign=middle;whiteSpace=wrap;rounded=0;" parent="1" vertex="1">
          <mxGeometry x="-120" y="347" width="150" height="163" as="geometry" />
        </mxCell>
      </root>
    </mxGraphModel>
  </diagram>
  <diagram id="gjMViYJelwH7_wm2SvNp" name="test">
    <mxGraphModel dx="2074" dy="1204" grid="1" gridSize="10" guides="1" tooltips="1" connect="1" arrows="1" fold="1" page="1" pageScale="1" pageWidth="827" pageHeight="1169" math="0" shadow="0">
      <root>
        <mxCell id="0" />
        <mxCell id="1" parent="0" />
      </root>
    </mxGraphModel>
  </diagram>
</mxfile>
